<svg width="24" height="26" viewBox="0 0 24 26" fill="none" xmlns="http://www.w3.org/2000/svg">
<path fill-rule="evenodd" clip-rule="evenodd" d="M20.28 4.13828L21.94 9.13245C22.3012 10.0995 22.2119 11.1955 21.7 12.0791C21.2644 12.7487 20.6342 13.2408 19.91 13.4766V20.8433C19.8943 21.6708 19.5756 22.4577 19.0242 23.0306C18.4728 23.6036 17.7339 23.9157 16.97 23.8983H7.31C6.53665 23.9304 5.78371 23.6252 5.21981 23.051C4.65591 22.4767 4.32818 21.6815 4.31 20.8433V13.5849C3.60595 13.4103 2.97181 12.9966 2.5 12.4041C1.82159 11.4867 1.65334 10.2439 2.06 9.15412L3.71 4.14912C4.09914 3.08172 5.06092 2.38998 6.12 2.41578H17.87C18.9274 2.38508 19.89 3.07306 20.28 4.13828ZM13.3515 22.1325H13.36V22.1649C13.357 22.1542 13.3541 22.1433 13.3515 22.1325ZM13.3515 22.1325H10.81C10.8195 22.0497 10.8195 21.966 10.81 21.8833V19.5975C10.8274 19.2537 10.9742 18.9328 11.2162 18.7096C11.4581 18.4864 11.774 18.3805 12.09 18.4166C12.7184 18.3667 13.2669 18.8739 13.32 19.5541V21.8724C13.32 21.9603 13.3306 22.0477 13.3515 22.1325ZM16.92 22.1325H14.81C14.8195 22.0497 14.8195 21.966 14.81 21.8833V19.5975C14.7557 18.0022 13.5228 16.7537 12.05 16.8024C10.5733 16.7476 9.33426 17.9979 9.28 19.5975V21.9158C9.27048 21.9985 9.27048 22.0822 9.28 22.1649H7.26C6.52339 22.2018 5.89774 21.5869 5.86 20.7891V13.5633C7.19237 13.3454 8.26244 12.2594 8.55 10.8333C8.90221 12.5635 10.3681 13.7556 12 13.6391C13.6025 13.7119 15.0225 12.5296 15.37 10.8333C15.6514 12.3492 16.8103 13.4906 18.23 13.6499V20.8433C18.1688 21.5815 17.6041 22.1513 16.92 22.1649V22.1325ZM18.92 11.7433C19.4501 11.7282 19.9413 11.438 20.24 10.9633V10.9958C20.4475 10.6171 20.4736 10.1531 20.31 9.74995L18.66 4.82078C18.5136 4.4984 18.2006 4.30526 17.87 4.33328H6.12C5.8019 4.30177 5.49641 4.47573 5.34 4.77745L3.69 9.74995C3.47556 10.2097 3.51407 10.7604 3.79 11.1799C4.03924 11.5117 4.39788 11.7254 4.79 11.7758C4.91624 11.7917 5.04376 11.7917 5.17 11.7758C5.93946 11.8213 6.6344 11.2803 6.84 10.4758C6.99257 9.56003 7.72116 8.88867 8.58 8.87245C9.44809 8.872 10.1868 9.55732 10.32 10.4866C10.5236 11.2961 11.2275 11.8364 12 11.7758C12.7788 11.832 13.4827 11.275 13.67 10.4541C13.8146 9.5318 14.5465 8.85286 15.41 8.83995C16.2749 8.83866 17.0124 9.51829 17.15 10.4433C17.3537 11.2588 18.0621 11.8037 18.84 11.7433H18.92Z" fill="#808080"/>
</svg>
