<svg width="26" height="28" viewBox="0 0 26 28" fill="none" xmlns="http://www.w3.org/2000/svg">
<path d="M13 23C8.02944 23 4 18.9706 4 14C4 9.02944 8.02944 5 13 5C17.9706 5 22 9.02944 22 14C22 15.4876 21.6391 16.891 21 18.1272L22 23L17.1272 22C15.891 22.6391 14.4876 23 13 23Z" stroke="#808080" stroke-width="2" stroke-linecap="round" stroke-linejoin="round"/>
<rect width="0.01" height="0.01" transform="matrix(-1 0 0 1 17.5 14)" stroke="#808080" stroke-width="3" stroke-linejoin="round"/>
<rect width="0.01" height="0.01" transform="matrix(-1 0 0 1 13 14)" stroke="#808080" stroke-width="3" stroke-linejoin="round"/>
<rect width="0.01" height="0.01" transform="matrix(-1 0 0 1 8.5 14)" stroke="#808080" stroke-width="3" stroke-linejoin="round"/>
</svg>
