<svg width="40" height="40" viewBox="0 0 40 40" fill="none" xmlns="http://www.w3.org/2000/svg">
<path d="M31.9 21.56C31.96 21.06 32 20.54 32 20C32 19.46 31.96 18.94 31.88 18.44L35.26 15.8C35.56 15.56 35.64 15.12 35.46 14.78L32.26 9.24C32.06 8.88 31.64 8.76 31.28 8.88L27.3 10.48C26.46 9.84 25.58 9.32 24.6 8.92L24 4.68C23.94 4.28 23.6 4 23.2 4H16.8C16.4 4 16.08 4.28 16.02 4.68L15.42 8.92C14.44 9.32 13.54 9.86 12.72 10.48L8.74001 8.88C8.38001 8.74 7.96002 8.88 7.76002 9.24L4.56001 14.78C4.36001 15.14 4.44002 15.56 4.76002 15.8L8.14002 18.44C8.06002 18.94 8.00002 19.48 8.00002 20C8.00002 20.52 8.04001 21.06 8.12001 21.56L4.74001 24.2C4.44001 24.44 4.36001 24.88 4.54001 25.22L7.74001 30.76C7.94001 31.12 8.36001 31.24 8.72002 31.12L12.7 29.52C13.54 30.16 14.42 30.68 15.4 31.08L16 35.32C16.08 35.72 16.4 36 16.8 36H23.2C23.6 36 23.94 35.72 23.98 35.32L24.58 31.08C25.56 30.68 26.46 30.14 27.28 29.52L31.26 31.12C31.62 31.26 32.04 31.12 32.24 30.76L35.44 25.22C35.64 24.86 35.56 24.44 35.24 24.2L31.9 21.56ZM20 26C16.7 26 14 23.3 14 20C14 16.7 16.7 14 20 14C23.3 14 26 16.7 26 20C26 23.3 23.3 26 20 26Z" fill="black"/>
</svg>
