<svg width="28" height="24" viewBox="0 0 28 24" fill="none" xmlns="http://www.w3.org/2000/svg">
<path d="M26 13.5001C26.8284 13.5001 27.5 12.8285 27.5 12.0001C27.5 11.1717 26.8284 10.5001 26 10.5001L26 13.5001ZM0.93924 10.9393C0.353452 11.5251 0.353448 12.4749 0.939232 13.0607L10.4851 22.6066C11.0709 23.1924 12.0207 23.1924 12.6065 22.6066C13.1922 22.0209 13.1922 21.0711 12.6065 20.4853L4.12122 12L12.6065 3.51476C13.1923 2.92898 13.1923 1.97923 12.6065 1.39344C12.0208 0.807652 11.071 0.807648 10.4852 1.39343L0.93924 10.9393ZM26 10.5001L1.9999 10.5L1.99989 13.5L26 13.5001L26 10.5001Z" fill="black"/>
</svg>
