<svg width="28" height="23" viewBox="0 0 28 23" fill="none" xmlns="http://www.w3.org/2000/svg">
<path d="M25.7035 12.7159C26.5319 12.72 27.2063 12.0517 27.2099 11.2233C27.2135 10.3949 26.5448 9.72001 25.7164 9.71593L25.7035 12.7159ZM0.654136 10.0319C0.0658335 10.6148 0.0617425 11.5645 0.644999 12.1532L10.1497 21.746C10.733 22.3347 11.6827 22.3394 12.271 21.7565C12.8593 21.1736 12.8634 20.2239 12.2801 19.6352L3.83151 11.1082L12.3532 2.66478C12.9415 2.08189 12.9456 1.13215 12.3624 0.543484C11.7791 -0.0451806 10.8294 -0.0498557 10.2411 0.533042L0.654136 10.0319ZM25.7164 9.71593L1.71668 9.59779L1.70375 12.5978L25.7035 12.7159L25.7164 9.71593Z" fill="black"/>
</svg>
