<svg width="28" height="24" viewBox="0 0 28 24" fill="none" xmlns="http://www.w3.org/2000/svg">
<path d="M26 13.5001C26.8284 13.5001 27.5 12.8285 27.5 12.0001C27.5 11.1717 26.8284 10.5001 26 10.5001L26 13.5001ZM0.939309 10.9393C0.35352 11.5251 0.353515 12.4749 0.939299 13.0606L10.4852 22.6066C11.071 23.1924 12.0207 23.1924 12.6065 22.6066C13.1923 22.0209 13.1923 21.0711 12.6065 20.4853L4.12128 12L12.6066 3.51475C13.1924 2.92897 13.1924 1.97922 12.6066 1.39343C12.0208 0.807644 11.0711 0.80764 10.4853 1.39342L0.939309 10.9393ZM26 10.5001L1.99997 10.5L1.99996 13.5L26 13.5001L26 10.5001Z" fill="black"/>
</svg>
