<svg width="26" height="24" viewBox="0 0 26 24" fill="none" xmlns="http://www.w3.org/2000/svg">
<path d="M23.5583 13.5001C24.3867 13.5001 25.0583 12.8285 25.0583 12.0001C25.0583 11.1717 24.3868 10.5001 23.5583 10.5001L23.5583 13.5001ZM0.460279 10.9393C-0.12551 11.5251 -0.125514 12.4749 0.46027 13.0606L10.0062 22.6066C10.592 23.1924 11.5417 23.1924 12.1275 22.6066C12.7133 22.0209 12.7133 21.0711 12.1275 20.4853L3.64225 12L12.1276 3.51476C12.7134 2.92897 12.7134 1.97923 12.1276 1.39344C11.5418 0.807648 10.592 0.807643 10.0063 1.39343L0.460279 10.9393ZM23.5583 10.5001L1.52094 10.5L1.52093 13.5L23.5583 13.5001L23.5583 10.5001Z" fill="black"/>
</svg>
