<svg width="24" height="22" viewBox="0 0 24 22" fill="none" xmlns="http://www.w3.org/2000/svg">
<path d="M9.58106 19.8732V14.1311C9.58106 13.6818 9.88379 13.3889 10.333 13.3889H14.1123C14.5713 13.3889 14.8545 13.6818 14.8545 14.1311V19.8732H9.58106ZM3.6045 19.2971C3.6045 20.6545 4.42481 21.4455 5.80176 21.4455H18.6435C20.0205 21.4455 20.831 20.6545 20.831 19.2971V11.5432L12.8037 4.8147C12.4326 4.5022 11.9931 4.51197 11.6318 4.8147L3.6045 11.5432V19.2971ZM1.39746 11.3381C1.6709 11.3381 1.89551 11.1916 2.10059 11.0256L11.876 2.81275C11.9834 2.72486 12.1103 2.67603 12.2178 2.67603C12.3349 2.67603 12.4521 2.72486 12.5596 2.81275L22.3447 11.0256C22.54 11.1916 22.7646 11.3381 23.0381 11.3381C23.5654 11.3381 23.8779 10.9572 23.8779 10.5569C23.8779 10.3323 23.79 10.0979 23.5654 9.92212L13.3896 1.3772C13.0185 1.0647 12.6181 0.908447 12.2178 0.908447C11.8174 0.908447 11.417 1.0647 11.0459 1.3772L0.870117 9.92212C0.655273 10.0979 0.557617 10.3323 0.557617 10.5569C0.557617 10.9572 0.870117 11.3381 1.39746 11.3381ZM18.5752 6.15259L21.0264 8.2229V3.81861C21.0264 3.38892 20.7529 3.11548 20.3232 3.11548H19.2783C18.8584 3.11548 18.5752 3.38892 18.5752 3.81861V6.15259Z" fill="white"/>
</svg>
