<svg width="24" height="22" viewBox="0 0 24 22" fill="none" xmlns="http://www.w3.org/2000/svg">
<path d="M9.70288 19.8732V14.1311C9.70288 13.6818 10.0056 13.3889 10.4548 13.3889H14.2341C14.6931 13.3889 14.9763 13.6818 14.9763 14.1311V19.8732H9.70288ZM3.72632 19.2971C3.72632 20.6545 4.54663 21.4455 5.92358 21.4455H18.7653C20.1423 21.4455 20.9528 20.6545 20.9528 19.2971V11.5432L12.9255 4.8147C12.5544 4.5022 12.1149 4.51197 11.7536 4.8147L3.72632 11.5432V19.2971ZM1.51929 11.3381C1.79272 11.3381 2.01733 11.1916 2.22241 11.0256L11.9978 2.81275C12.1052 2.72486 12.2321 2.67603 12.3396 2.67603C12.4567 2.67603 12.5739 2.72486 12.6814 2.81275L22.4665 11.0256C22.6618 11.1916 22.8864 11.3381 23.1599 11.3381C23.6872 11.3381 23.9997 10.9572 23.9997 10.5569C23.9997 10.3323 23.9118 10.0979 23.6872 9.92212L13.5114 1.3772C13.1403 1.0647 12.7399 0.908447 12.3396 0.908447C11.9392 0.908447 11.5388 1.0647 11.1677 1.3772L0.991943 9.92212C0.7771 10.0979 0.679443 10.3323 0.679443 10.5569C0.679443 10.9572 0.991943 11.3381 1.51929 11.3381ZM18.697 6.15259L21.1482 8.2229V3.81861C21.1482 3.38892 20.8747 3.11548 20.445 3.11548H19.4001C18.9802 3.11548 18.697 3.38892 18.697 3.81861V6.15259Z" fill="white"/>
</svg>
