<svg width="25" height="21" viewBox="0 0 25 21" fill="none" xmlns="http://www.w3.org/2000/svg">
<path d="M9.96485 19.0705V13.3284C9.96485 12.8791 10.2676 12.5862 10.7168 12.5862H14.4961C14.9551 12.5862 15.2383 12.8791 15.2383 13.3284V19.0705H9.96485ZM3.98829 18.4944C3.98829 19.8518 4.8086 20.6428 6.18555 20.6428H19.0273C20.4043 20.6428 21.2148 19.8518 21.2148 18.4944V10.7405L13.1875 4.01196C12.8164 3.69946 12.3769 3.70923 12.0156 4.01196L3.98829 10.7405V18.4944ZM1.78125 10.5354C2.05469 10.5354 2.2793 10.3889 2.48438 10.2229L12.2598 2.01001C12.3672 1.92212 12.4941 1.87329 12.6016 1.87329C12.7187 1.87329 12.8359 1.92212 12.9434 2.01001L22.7285 10.2229C22.9238 10.3889 23.1484 10.5354 23.4219 10.5354C23.9492 10.5354 24.2617 10.1545 24.2617 9.75415C24.2617 9.52954 24.1738 9.29516 23.9492 9.11938L13.7734 0.574463C13.4023 0.261963 13.0019 0.105713 12.6016 0.105713C12.2012 0.105713 11.8008 0.261963 11.4297 0.574463L1.25391 9.11938C1.03906 9.29516 0.941406 9.52954 0.941406 9.75415C0.941406 10.1545 1.25391 10.5354 1.78125 10.5354ZM18.959 5.34985L21.4102 7.42016V3.01587C21.4102 2.58618 21.1367 2.31274 20.707 2.31274H19.6621C19.2422 2.31274 18.959 2.58618 18.959 3.01587V5.34985Z" fill="white"/>
</svg>
