<svg width="26" height="23" viewBox="0 0 26 23" fill="none" xmlns="http://www.w3.org/2000/svg">
<path d="M13 23L11.115 21.3706C8.92667 19.4696 7.1175 17.8297 5.6875 16.451C4.2575 15.0722 3.12 13.8345 2.275 12.7377C1.43 11.641 0.839583 10.6331 0.50375 9.7139C0.167917 8.79473 0 7.85468 0 6.89373C0 4.93006 0.6825 3.29019 2.0475 1.97411C3.4125 0.658038 5.11333 0 7.15 0C8.27667 0 9.34917 0.229791 10.3675 0.689373C11.3858 1.14896 12.2633 1.79655 13 2.63215C13.7367 1.79655 14.6142 1.14896 15.6325 0.689373C16.6508 0.229791 17.7233 0 18.85 0C20.8867 0 22.5875 0.658038 23.9525 1.97411C25.3175 3.29019 26 4.93006 26 6.89373C26 7.85468 25.8321 8.79473 25.4962 9.7139C25.1604 10.6331 24.57 11.641 23.725 12.7377C22.88 13.8345 21.7425 15.0722 20.3125 16.451C18.8825 17.8297 17.0733 19.4696 14.885 21.3706L13 23ZM13 19.6158C15.08 17.8193 16.7917 16.2786 18.135 14.9939C19.4783 13.7091 20.54 12.5915 21.32 11.641C22.1 10.6905 22.6417 9.84446 22.945 9.10286C23.2483 8.36126 23.4 7.62489 23.4 6.89373C23.4 5.64033 22.9667 4.59582 22.1 3.76022C21.2333 2.92461 20.15 2.50681 18.85 2.50681C17.8317 2.50681 16.8892 2.78361 16.0225 3.33719C15.1558 3.89078 14.56 4.59582 14.235 5.45232H11.765C11.44 4.59582 10.8442 3.89078 9.9775 3.33719C9.11083 2.78361 8.16833 2.50681 7.15 2.50681C5.85 2.50681 4.76667 2.92461 3.9 3.76022C3.03333 4.59582 2.6 5.64033 2.6 6.89373C2.6 7.62489 2.75167 8.36126 3.055 9.10286C3.35833 9.84446 3.9 10.6905 4.68 11.641C5.46 12.5915 6.52167 13.7091 7.865 14.9939C9.20833 16.2786 10.92 17.8193 13 19.6158Z" fill="#808080"/>
</svg>
