<svg width="19" height="21" viewBox="0 0 19 21" fill="none" xmlns="http://www.w3.org/2000/svg">
<path d="M3.94141 20.6057C3.10807 20.6057 2.39974 20.314 1.81641 19.7307C1.23307 19.1474 0.941406 18.439 0.941406 17.6057V14.6057H3.94141V0.605713L5.44141 2.10571L6.94141 0.605713L8.44141 2.10571L9.94141 0.605713L11.4414 2.10571L12.9414 0.605713L14.4414 2.10571L15.9414 0.605713L17.4414 2.10571L18.9414 0.605713V17.6057C18.9414 18.439 18.6497 19.1474 18.0664 19.7307C17.4831 20.314 16.7747 20.6057 15.9414 20.6057H3.94141ZM15.9414 18.6057C16.2247 18.6057 16.4622 18.5099 16.6539 18.3182C16.8456 18.1265 16.9414 17.889 16.9414 17.6057V3.60571H5.94141V14.6057H14.9414V17.6057C14.9414 17.889 15.0372 18.1265 15.2289 18.3182C15.4206 18.5099 15.6581 18.6057 15.9414 18.6057ZM6.94141 7.60571V5.60571H12.9414V7.60571H6.94141ZM6.94141 10.6057V8.60571H12.9414V10.6057H6.94141ZM14.9414 7.60571C14.6581 7.60571 14.4206 7.50988 14.2289 7.31821C14.0372 7.12655 13.9414 6.88905 13.9414 6.60571C13.9414 6.32238 14.0372 6.08488 14.2289 5.89321C14.4206 5.70155 14.6581 5.60571 14.9414 5.60571C15.2247 5.60571 15.4622 5.70155 15.6539 5.89321C15.8456 6.08488 15.9414 6.32238 15.9414 6.60571C15.9414 6.88905 15.8456 7.12655 15.6539 7.31821C15.4622 7.50988 15.2247 7.60571 14.9414 7.60571ZM14.9414 10.6057C14.6581 10.6057 14.4206 10.5099 14.2289 10.3182C14.0372 10.1265 13.9414 9.88905 13.9414 9.60571C13.9414 9.32238 14.0372 9.08488 14.2289 8.89321C14.4206 8.70155 14.6581 8.60571 14.9414 8.60571C15.2247 8.60571 15.4622 8.70155 15.6539 8.89321C15.8456 9.08488 15.9414 9.32238 15.9414 9.60571C15.9414 9.88905 15.8456 10.1265 15.6539 10.3182C15.4622 10.5099 15.2247 10.6057 14.9414 10.6057ZM3.94141 18.6057H12.9414V16.6057H2.94141V17.6057C2.94141 17.889 3.03724 18.1265 3.22891 18.3182C3.42057 18.5099 3.65807 18.6057 3.94141 18.6057Z" fill="white"/>
</svg>
