<svg width="24" height="22" viewBox="0 0 24 22" fill="none" xmlns="http://www.w3.org/2000/svg">
<path d="M9.02344 19.4648V13.7227C9.02344 13.2734 9.32617 12.9805 9.77539 12.9805H13.5547C14.0137 12.9805 14.2969 13.2734 14.2969 13.7227V19.4648H9.02344ZM3.04688 18.8887C3.04688 20.2461 3.86719 21.0371 5.24414 21.0371H18.0859C19.4629 21.0371 20.2734 20.2461 20.2734 18.8887V11.1348L12.2461 4.40625C11.875 4.09375 11.4355 4.10352 11.0742 4.40625L3.04688 11.1348V18.8887ZM0.839844 10.9297C1.11328 10.9297 1.33789 10.7832 1.54297 10.6172L11.3184 2.4043C11.4258 2.31641 11.5527 2.26758 11.6602 2.26758C11.7773 2.26758 11.8945 2.31641 12.002 2.4043L21.7871 10.6172C21.9824 10.7832 22.207 10.9297 22.4805 10.9297C23.0078 10.9297 23.3203 10.5488 23.3203 10.1484C23.3203 9.92383 23.2324 9.68945 23.0078 9.51367L12.832 0.96875C12.4609 0.65625 12.0605 0.5 11.6602 0.5C11.2598 0.5 10.8594 0.65625 10.4883 0.96875L0.3125 9.51367C0.0976562 9.68945 0 9.92383 0 10.1484C0 10.5488 0.3125 10.9297 0.839844 10.9297ZM18.0176 5.74414L20.4688 7.81445V3.41016C20.4688 2.98047 20.1953 2.70703 19.7656 2.70703H18.7207C18.3008 2.70703 18.0176 2.98047 18.0176 3.41016V5.74414Z" fill="white"/>
</svg>
