<svg width="19" height="21" viewBox="0 0 19 21" fill="none" xmlns="http://www.w3.org/2000/svg">
<path d="M3.67944 20.4084C2.84611 20.4084 2.13778 20.1168 1.55444 19.5334C0.97111 18.9501 0.679443 18.2418 0.679443 17.4084V14.4084H3.67944V0.408447L5.17944 1.90845L6.67944 0.408447L8.17944 1.90845L9.67944 0.408447L11.1794 1.90845L12.6794 0.408447L14.1794 1.90845L15.6794 0.408447L17.1794 1.90845L18.6794 0.408447V17.4084C18.6794 18.2418 18.3878 18.9501 17.8044 19.5334C17.2211 20.1168 16.5128 20.4084 15.6794 20.4084H3.67944ZM15.6794 18.4084C15.9628 18.4084 16.2003 18.3126 16.3919 18.1209C16.5836 17.9293 16.6794 17.6918 16.6794 17.4084V3.40845H5.67944V14.4084H14.6794V17.4084C14.6794 17.6918 14.7753 17.9293 14.9669 18.1209C15.1586 18.3126 15.3961 18.4084 15.6794 18.4084ZM6.67944 7.40845V5.40845H12.6794V7.40845H6.67944ZM6.67944 10.4084V8.40845H12.6794V10.4084H6.67944ZM14.6794 7.40845C14.3961 7.40845 14.1586 7.31261 13.9669 7.12095C13.7753 6.92928 13.6794 6.69178 13.6794 6.40845C13.6794 6.12511 13.7753 5.88761 13.9669 5.69595C14.1586 5.50428 14.3961 5.40845 14.6794 5.40845C14.9628 5.40845 15.2003 5.50428 15.3919 5.69595C15.5836 5.88761 15.6794 6.12511 15.6794 6.40845C15.6794 6.69178 15.5836 6.92928 15.3919 7.12095C15.2003 7.31261 14.9628 7.40845 14.6794 7.40845ZM14.6794 10.4084C14.3961 10.4084 14.1586 10.3126 13.9669 10.1209C13.7753 9.92928 13.6794 9.69178 13.6794 9.40845C13.6794 9.12511 13.7753 8.88761 13.9669 8.69595C14.1586 8.50428 14.3961 8.40845 14.6794 8.40845C14.9628 8.40845 15.2003 8.50428 15.3919 8.69595C15.5836 8.88761 15.6794 9.12511 15.6794 9.40845C15.6794 9.69178 15.5836 9.92928 15.3919 10.1209C15.2003 10.3126 14.9628 10.4084 14.6794 10.4084ZM3.67944 18.4084H12.6794V16.4084H2.67944V17.4084C2.67944 17.6918 2.77528 17.9293 2.96694 18.1209C3.15861 18.3126 3.39611 18.4084 3.67944 18.4084Z" fill="white"/>
</svg>
