<svg width="19" height="21" viewBox="0 0 19 21" fill="none" xmlns="http://www.w3.org/2000/svg">
<path d="M3.55762 20.4084C2.72428 20.4084 2.01595 20.1168 1.43262 19.5334C0.849284 18.9501 0.557617 18.2418 0.557617 17.4084V14.4084H3.55762V0.408447L5.05762 1.90845L6.55762 0.408447L8.05762 1.90845L9.55762 0.408447L11.0576 1.90845L12.5576 0.408447L14.0576 1.90845L15.5576 0.408447L17.0576 1.90845L18.5576 0.408447V17.4084C18.5576 18.2418 18.266 18.9501 17.6826 19.5334C17.0993 20.1168 16.391 20.4084 15.5576 20.4084H3.55762ZM15.5576 18.4084C15.841 18.4084 16.0785 18.3126 16.2701 18.1209C16.4618 17.9293 16.5576 17.6918 16.5576 17.4084V3.40845H5.55762V14.4084H14.5576V17.4084C14.5576 17.6918 14.6535 17.9293 14.8451 18.1209C15.0368 18.3126 15.2743 18.4084 15.5576 18.4084ZM6.55762 7.40845V5.40845H12.5576V7.40845H6.55762ZM6.55762 10.4084V8.40845H12.5576V10.4084H6.55762ZM14.5576 7.40845C14.2743 7.40845 14.0368 7.31261 13.8451 7.12095C13.6535 6.92928 13.5576 6.69178 13.5576 6.40845C13.5576 6.12511 13.6535 5.88761 13.8451 5.69595C14.0368 5.50428 14.2743 5.40845 14.5576 5.40845C14.841 5.40845 15.0785 5.50428 15.2701 5.69595C15.4618 5.88761 15.5576 6.12511 15.5576 6.40845C15.5576 6.69178 15.4618 6.92928 15.2701 7.12095C15.0785 7.31261 14.841 7.40845 14.5576 7.40845ZM14.5576 10.4084C14.2743 10.4084 14.0368 10.3126 13.8451 10.1209C13.6535 9.92928 13.5576 9.69178 13.5576 9.40845C13.5576 9.12511 13.6535 8.88761 13.8451 8.69595C14.0368 8.50428 14.2743 8.40845 14.5576 8.40845C14.841 8.40845 15.0785 8.50428 15.2701 8.69595C15.4618 8.88761 15.5576 9.12511 15.5576 9.40845C15.5576 9.69178 15.4618 9.92928 15.2701 10.1209C15.0785 10.3126 14.841 10.4084 14.5576 10.4084ZM3.55762 18.4084H12.5576V16.4084H2.55762V17.4084C2.55762 17.6918 2.65345 17.9293 2.84512 18.1209C3.03678 18.3126 3.27428 18.4084 3.55762 18.4084Z" fill="white"/>
</svg>
